<svg width="12" height="12" viewBox="0 0 12 12" fill="none" xmlns="http://www.w3.org/2000/svg">
<path fill-rule="evenodd" clip-rule="evenodd" d="M6.00098 10.0005C1.00098 10.0005 0.000976562 6.00049 0.000976562 6.00049C0.000976562 6.00049 0.49319 4.03164 2.5136 2.85654L0.000976562 0.343923L0.344411 0.000488281L2.96452 2.6206C3.75969 2.24832 4.75642 2.00049 6.00098 2.00049C11.001 2.00049 12.001 6.00049 12.001 6.00049C12.001 6.00049 11.5088 7.96934 9.48836 9.14443L12.001 11.6571L11.6575 12.0005L9.03743 9.38038C8.24226 9.75266 7.24553 10.0005 6.00098 10.0005ZM8.62077 6.00049C8.62077 4.52773 7.42686 3.33382 5.9541 3.33382C5.31713 3.33382 4.73232 3.55715 4.2737 3.92978L3.34289 2.99897C4.04698 2.69799 4.91994 2.50049 6.00098 2.50049C8.3468 2.50049 9.71285 3.4305 10.4997 4.32974C10.8988 4.78589 11.1557 5.24256 11.3121 5.58382C11.3901 5.75404 11.4425 5.8942 11.4748 5.98926L11.4785 6.00049L11.4748 6.01171C11.4425 6.10677 11.3901 6.24693 11.3121 6.41716C11.1557 6.75842 10.8988 7.21509 10.4997 7.67124C10.1594 8.06014 9.71077 8.4548 9.12142 8.77749L8.02481 7.68089C8.39744 7.22227 8.62077 6.63746 8.62077 6.00049ZM1.50226 4.32974C1.10313 4.78589 0.846294 5.24256 0.689884 5.58382C0.611863 5.75404 0.559452 5.8942 0.5272 5.98926L0.523414 6.00049L0.5272 6.01171C0.559452 6.10677 0.611863 6.24693 0.689884 6.41716C0.846294 6.75842 1.10313 7.21509 1.50226 7.67124C2.2891 8.57048 3.65515 9.50049 6.00098 9.50049C7.08201 9.50049 7.95497 9.30299 8.65906 9.00201L7.68564 8.02858L3.92601 4.26895L2.88054 3.22348C2.29118 3.54618 1.84256 3.94084 1.50226 4.32974Z" fill="#919BA6"/>
</svg>
